<?xml version="1.0" encoding="UTF-8" standalone="no"?>
<!DOCTYPE svg PUBLIC "-//W3C//DTD SVG 1.1//EN" "http://www.w3.org/Graphics/SVG/1.1/DTD/svg11.dtd">
<svg width="100%" height="100%" viewBox="0 0 1667 1895" version="1.1" xmlns="http://www.w3.org/2000/svg" xmlns:xlink="http://www.w3.org/1999/xlink" xml:space="preserve" xmlns:serif="http://www.serif.com/" style="fill-rule:evenodd;clip-rule:evenodd;stroke-linejoin:round;stroke-miterlimit:2;">
    <g transform="matrix(1,0,0,1,-166.656624,-17.631349)">
        <g transform="matrix(6.426582,0,0,6.426582,-134.854301,-240.891688)">
            <g transform="matrix(1.3095,0,0,1.3095,-486.015781,-1148.067788)">
                <path d="M472.075,999.047C467.19,998.701 463,997.988 459.429,997.006C448.565,994.021 441.976,988.527 438.011,982.404C430.867,971.373 432.163,956.59 438.336,944.093C444.306,932.007 454.629,923.09 460.876,921.108C472.185,917.52 481.075,918.832 487.884,922.575C497.246,927.722 503.845,938.791 505.348,954.928C505.713,958.858 505.791,963.158 505.6,967.75C506.536,967.565 507.486,967.372 508.452,967.17C540.983,960.363 551.841,941.196 558.402,932.029L566.7,920.434L589.891,937.032L581.592,948.627C572.807,960.902 557.853,985.969 514.292,995.084C509.809,996.022 505.579,996.786 501.59,997.393C498.644,1011.296 494.224,1026.139 488.683,1040.65C476.751,1071.903 459.674,1101.499 442.424,1117.282L431.904,1126.908L412.653,1105.868L423.173,1096.242C443.713,1077.448 463.12,1035.459 472.075,999.047ZM476.907,970.785C477.535,963.022 477.345,956.233 475.774,951.031C475.34,949.595 474.995,948.291 474.09,947.531C473.804,947.291 473.39,947.513 472.929,947.549C472.139,947.612 471.302,947.777 470.411,948.021C469.549,948.951 465.59,953.312 463.905,956.724C462.273,960.028 460.319,963.719 461.866,966.759C462.509,968.025 464.067,968.594 466.104,969.246C468.988,970.168 472.559,970.667 476.907,970.785Z" style="fill:rgb(0,119,182);"/>
            </g>
            <g transform="matrix(1.3095,0,0,1.3095,-486.015781,-1148.067788)">
                <path d="M482.824,1053.744L468.691,1055.634L464.91,1027.368L479.043,1025.477C482.628,1024.997 487.519,1025.348 493.514,1025.974C509.325,1027.627 536.639,1029.426 568.168,990.961L577.207,979.933L599.263,998.011L590.224,1009.039C553.458,1053.893 520.38,1056.415 498.661,1055.051C491.739,1054.616 486.338,1053.273 482.824,1053.744Z" style="fill:rgb(0,119,182);"/>
            </g>
        </g>
    </g>
</svg>
